<mxfile host="app.diagrams.net" modified="2020-12-01T05:04:14.151Z" agent="5.0 (X11; Linux x86_64) AppleWebKit/537.36 (KHTML, like Gecko) Chrome/86.0.4240.111 Safari/537.36" etag="GFMmsNQPGgTXEKZDQQ2b" version="13.10.4" type="github">
  <diagram id="uJhRBP3LMf1cZtbwJu1h" name="Page-1">
    <mxGraphModel dx="797" dy="465" grid="1" gridSize="10" guides="1" tooltips="1" connect="1" arrows="1" fold="1" page="1" pageScale="1" pageWidth="850" pageHeight="1100" math="0" shadow="0">
      <root>
        <mxCell id="0" />
        <mxCell id="1" parent="0" />
        <mxCell id="Pvs67Ad_FaqwvnNVK5An-1" value="Openvswitch&lt;br&gt;br1" style="whiteSpace=wrap;html=1;aspect=fixed;fillColor=#fff2cc;strokeColor=#d6b656;" parent="1" vertex="1">
          <mxGeometry x="270" y="120" width="180" height="180" as="geometry" />
        </mxCell>
        <mxCell id="Pvs67Ad_FaqwvnNVK5An-2" value="10.0.0.1/24" style="whiteSpace=wrap;html=1;aspect=fixed;fillColor=#f8cecc;strokeColor=#b85450;" parent="1" vertex="1">
          <mxGeometry x="30" y="20" width="110" height="110" as="geometry" />
        </mxCell>
        <mxCell id="Pvs67Ad_FaqwvnNVK5An-3" value="10.0.1.1/24" style="whiteSpace=wrap;html=1;aspect=fixed;fillColor=#d5e8d4;strokeColor=#82b366;" parent="1" vertex="1">
          <mxGeometry x="590" y="20" width="110" height="110" as="geometry" />
        </mxCell>
        <mxCell id="Pvs67Ad_FaqwvnNVK5An-4" value="Red" style="whiteSpace=wrap;html=1;aspect=fixed;fillColor=#f8cecc;strokeColor=#b85450;" parent="1" vertex="1">
          <mxGeometry x="40" y="320" width="110" height="110" as="geometry" />
        </mxCell>
        <mxCell id="Pvs67Ad_FaqwvnNVK5An-5" value="Green" style="whiteSpace=wrap;html=1;aspect=fixed;fillColor=#d5e8d4;strokeColor=#82b366;" parent="1" vertex="1">
          <mxGeometry x="590" y="320" width="110" height="110" as="geometry" />
        </mxCell>
        <mxCell id="Pvs67Ad_FaqwvnNVK5An-6" value="veth-tag-r&lt;br&gt;" style="rounded=0;whiteSpace=wrap;html=1;fillColor=#f8cecc;strokeColor=#b85450;" parent="1" vertex="1">
          <mxGeometry x="270" y="120" width="60" height="40" as="geometry" />
        </mxCell>
        <mxCell id="Pvs67Ad_FaqwvnNVK5An-7" value="veth-tag-g&lt;br&gt;" style="rounded=0;whiteSpace=wrap;html=1;fillColor=#d5e8d4;strokeColor=#82b366;" parent="1" vertex="1">
          <mxGeometry x="390" y="120" width="60" height="40" as="geometry" />
        </mxCell>
        <mxCell id="Pvs67Ad_FaqwvnNVK5An-8" value="veth-r&amp;nbsp;" style="rounded=0;whiteSpace=wrap;html=1;fillColor=#f8cecc;strokeColor=#b85450;" parent="1" vertex="1">
          <mxGeometry x="270" y="260" width="60" height="40" as="geometry" />
        </mxCell>
        <mxCell id="Pvs67Ad_FaqwvnNVK5An-9" value="veth-g&lt;br&gt;" style="rounded=0;whiteSpace=wrap;html=1;fillColor=#d5e8d4;strokeColor=#82b366;" parent="1" vertex="1">
          <mxGeometry x="390" y="260" width="60" height="40" as="geometry" />
        </mxCell>
        <mxCell id="Pvs67Ad_FaqwvnNVK5An-10" value="tag-r" style="rounded=0;whiteSpace=wrap;html=1;" parent="1" vertex="1">
          <mxGeometry x="100" y="100" width="40" height="30" as="geometry" />
        </mxCell>
        <mxCell id="Pvs67Ad_FaqwvnNVK5An-11" value="DHCP-r" style="text;html=1;strokeColor=none;fillColor=none;align=center;verticalAlign=middle;whiteSpace=wrap;rounded=0;" parent="1" vertex="1">
          <mxGeometry x="50" y="30" width="60" height="20" as="geometry" />
        </mxCell>
        <mxCell id="Pvs67Ad_FaqwvnNVK5An-12" value="tag-g" style="rounded=0;whiteSpace=wrap;html=1;" parent="1" vertex="1">
          <mxGeometry x="590" y="100" width="40" height="30" as="geometry" />
        </mxCell>
        <mxCell id="Pvs67Ad_FaqwvnNVK5An-13" value="DHCP-g" style="text;html=1;strokeColor=none;fillColor=none;align=center;verticalAlign=middle;whiteSpace=wrap;rounded=0;" parent="1" vertex="1">
          <mxGeometry x="610" y="30" width="60" height="20" as="geometry" />
        </mxCell>
        <mxCell id="Pvs67Ad_FaqwvnNVK5An-14" value="" style="endArrow=classic;html=1;exitX=1;exitY=0.75;exitDx=0;exitDy=0;entryX=0;entryY=0.5;entryDx=0;entryDy=0;" parent="1" source="Pvs67Ad_FaqwvnNVK5An-10" target="Pvs67Ad_FaqwvnNVK5An-6" edge="1">
          <mxGeometry width="50" height="50" relative="1" as="geometry">
            <mxPoint x="390" y="230" as="sourcePoint" />
            <mxPoint x="440" y="180" as="targetPoint" />
          </mxGeometry>
        </mxCell>
        <mxCell id="Pvs67Ad_FaqwvnNVK5An-15" value="" style="endArrow=classic;html=1;exitX=0;exitY=0.5;exitDx=0;exitDy=0;entryX=1;entryY=0.5;entryDx=0;entryDy=0;" parent="1" source="Pvs67Ad_FaqwvnNVK5An-12" target="Pvs67Ad_FaqwvnNVK5An-7" edge="1">
          <mxGeometry width="50" height="50" relative="1" as="geometry">
            <mxPoint x="390" y="230" as="sourcePoint" />
            <mxPoint x="440" y="180" as="targetPoint" />
          </mxGeometry>
        </mxCell>
        <mxCell id="Pvs67Ad_FaqwvnNVK5An-16" value="eth0-r&lt;span style=&quot;color: rgba(0 , 0 , 0 , 0) ; font-family: monospace ; font-size: 0px&quot;&gt;%3CmxGraphModel%3E%3Croot%3E%3CmxCell%20id%3D%220%22%2F%3E%3CmxCell%20id%3D%221%22%20parent%3D%220%22%2F%3E%3CmxCell%20id%3D%222%22%20value%3D%22tag-r%22%20style%3D%22rounded%3D0%3BwhiteSpace%3Dwrap%3Bhtml%3D1%3B%22%20vertex%3D%221%22%20parent%3D%221%22%3E%3CmxGeometry%20x%3D%22100%22%20y%3D%22100%22%20width%3D%2240%22%20height%3D%2230%22%20as%3D%22geometry%22%2F%3E%3C%2FmxCell%3E%3C%2Froot%3E%3C%2FmxGraphModel%3E&lt;/span&gt;" style="rounded=0;whiteSpace=wrap;html=1;" parent="1" vertex="1">
          <mxGeometry x="110" y="320" width="40" height="30" as="geometry" />
        </mxCell>
        <mxCell id="Pvs67Ad_FaqwvnNVK5An-17" value="eth0-g" style="rounded=0;whiteSpace=wrap;html=1;" parent="1" vertex="1">
          <mxGeometry x="590" y="320" width="40" height="30" as="geometry" />
        </mxCell>
        <mxCell id="Pvs67Ad_FaqwvnNVK5An-18" value="" style="endArrow=classic;html=1;exitX=1;exitY=0;exitDx=0;exitDy=0;entryX=0;entryY=1;entryDx=0;entryDy=0;" parent="1" source="Pvs67Ad_FaqwvnNVK5An-16" target="Pvs67Ad_FaqwvnNVK5An-8" edge="1">
          <mxGeometry width="50" height="50" relative="1" as="geometry">
            <mxPoint x="390" y="230" as="sourcePoint" />
            <mxPoint x="440" y="180" as="targetPoint" />
          </mxGeometry>
        </mxCell>
        <mxCell id="Pvs67Ad_FaqwvnNVK5An-19" value="" style="endArrow=classic;html=1;exitX=0;exitY=0;exitDx=0;exitDy=0;entryX=1;entryY=1;entryDx=0;entryDy=0;" parent="1" source="Pvs67Ad_FaqwvnNVK5An-17" target="Pvs67Ad_FaqwvnNVK5An-9" edge="1">
          <mxGeometry width="50" height="50" relative="1" as="geometry">
            <mxPoint x="390" y="230" as="sourcePoint" />
            <mxPoint x="440" y="180" as="targetPoint" />
          </mxGeometry>
        </mxCell>
        <mxCell id="Pvs67Ad_FaqwvnNVK5An-20" value="veth" style="text;html=1;strokeColor=#006EAF;fillColor=#1ba1e2;align=center;verticalAlign=middle;whiteSpace=wrap;rounded=0;fontColor=#ffffff;" parent="1" vertex="1">
          <mxGeometry x="180" y="280" width="40" height="20" as="geometry" />
        </mxCell>
        <mxCell id="Pvs67Ad_FaqwvnNVK5An-21" value="veth" style="text;html=1;strokeColor=#006EAF;fillColor=#1ba1e2;align=center;verticalAlign=middle;whiteSpace=wrap;rounded=0;fontColor=#ffffff;" parent="1" vertex="1">
          <mxGeometry x="190" y="100" width="40" height="20" as="geometry" />
        </mxCell>
        <mxCell id="Pvs67Ad_FaqwvnNVK5An-22" value="veth" style="text;html=1;strokeColor=#006EAF;fillColor=#1ba1e2;align=center;verticalAlign=middle;whiteSpace=wrap;rounded=0;fontColor=#ffffff;" parent="1" vertex="1">
          <mxGeometry x="480" y="100" width="40" height="20" as="geometry" />
        </mxCell>
        <mxCell id="Pvs67Ad_FaqwvnNVK5An-23" value="veth" style="text;html=1;strokeColor=#006EAF;fillColor=#1ba1e2;align=center;verticalAlign=middle;whiteSpace=wrap;rounded=0;fontColor=#ffffff;" parent="1" vertex="1">
          <mxGeometry x="490" y="270" width="40" height="20" as="geometry" />
        </mxCell>
        <mxCell id="tFN932Vd_jGFJwlhrkU--1" value="" style="endArrow=classic;html=1;" edge="1" parent="1" target="Pvs67Ad_FaqwvnNVK5An-4">
          <mxGeometry width="50" height="50" relative="1" as="geometry">
            <mxPoint x="85" y="132" as="sourcePoint" />
            <mxPoint x="430" y="220" as="targetPoint" />
          </mxGeometry>
        </mxCell>
        <mxCell id="tFN932Vd_jGFJwlhrkU--2" value="DHCP&lt;br&gt;10.0.0.0/24" style="text;html=1;strokeColor=#9673a6;fillColor=#e1d5e7;align=center;verticalAlign=middle;whiteSpace=wrap;rounded=0;" vertex="1" parent="1">
          <mxGeometry x="30" y="200" width="50" height="20" as="geometry" />
        </mxCell>
        <mxCell id="tFN932Vd_jGFJwlhrkU--4" value="DHCP&lt;br&gt;10.0.1.0/24" style="text;html=1;strokeColor=#9673a6;fillColor=#e1d5e7;align=center;verticalAlign=middle;whiteSpace=wrap;rounded=0;" vertex="1" parent="1">
          <mxGeometry x="660" y="200" width="50" height="20" as="geometry" />
        </mxCell>
        <mxCell id="tFN932Vd_jGFJwlhrkU--5" value="" style="endArrow=classic;html=1;exitX=0.5;exitY=1;exitDx=0;exitDy=0;entryX=0.5;entryY=0;entryDx=0;entryDy=0;" edge="1" parent="1" source="Pvs67Ad_FaqwvnNVK5An-3" target="Pvs67Ad_FaqwvnNVK5An-5">
          <mxGeometry width="50" height="50" relative="1" as="geometry">
            <mxPoint x="380" y="260" as="sourcePoint" />
            <mxPoint x="430" y="210" as="targetPoint" />
          </mxGeometry>
        </mxCell>
      </root>
    </mxGraphModel>
  </diagram>
</mxfile>
